<svg xmlns="http://www.w3.org/2000/svg" viewBox="0 0 512 512" fill="none">
  <!-- stem -->
  <path d="M252 80 C252 80 256 160 232 208 C212 244 184 272 152 292"
        stroke="#a31621" stroke-width="16" stroke-linecap="round" fill="none"/>
  <path d="M252 80 C252 80 264 152 300 196 C326 226 358 248 392 262"
        stroke="#a31621" stroke-width="16" stroke-linecap="round" fill="none"/>

  <!-- leaf -->
  <path d="M252 80 C288 56 344 56 376 88 C396 108 396 148 380 172
           C344 152 296 140 252 148 C260 116 260 96 252 80 Z"
        fill="#a31621"/>

  <!-- left cherry -->
  <circle cx="152" cy="336" r="92" fill="#a31621"/>

  <!-- right cherry -->
  <circle cx="392" cy="304" r="92" fill="#a31621"/>
</svg>
